HIERARCHY
ROOT Hips
{
	OFFSET 0.046577 -0.000013 1.010676
	CHANNELS 6 Xposition Yposition Zposition Xrotation Yrotation Zrotation
	JOINT Spine
	{
		OFFSET 0.004554 -0.002239 0.098343
		CHANNELS 6 Xposition Yposition Zposition Xrotation Yrotation Zrotation
		JOINT Spine1
		{
			OFFSET 0.007462 0.014882 0.129431
			CHANNELS 6 Xposition Yposition Zposition Xrotation Yrotation Zrotation
			JOINT Spine2
			{
				OFFSET 0.007545 0.021619 0.119634
				CHANNELS 6 Xposition Yposition Zposition Xrotation Yrotation Zrotation
				JOINT Neck
				{
					OFFSET 0.008537 0.013102 0.154787
					CHANNELS 6 Xposition Yposition Zposition Xrotation Yrotation Zrotation
					JOINT Head
					{
						OFFSET 0.002391 -0.038956 0.116262
						CHANNELS 6 Xposition Yposition Zposition Xrotation Yrotation Zrotation
						JOINT HeadTop_End
						{
							OFFSET 0.007884 -0.036650 0.226318
							CHANNELS 6 Xposition Yposition Zposition Xrotation Yrotation Zrotation
							JOINT HeadTop_End_end
							{
								OFFSET 0.006035 0.001186 0.123238
								CHANNELS 6 Xposition Yposition Zposition Xrotation Yrotation Zrotation
								End Site
								{
									OFFSET 0.006035 0.001186 0.123237
								}
							}
						}
						JOINT LeftEye
						{
							OFFSET 0.028375 -0.080047 0.089513
							CHANNELS 6 Xposition Yposition Zposition Xrotation Yrotation Zrotation
							JOINT LeftEye_end
							{
								OFFSET 0.006035 0.001186 0.123238
								CHANNELS 6 Xposition Yposition Zposition Xrotation Yrotation Zrotation
								End Site
								{
									OFFSET 0.006035 0.001186 0.123238
								}
							}
						}
						JOINT RightEye
						{
							OFFSET -0.032685 -0.075016 0.092455
							CHANNELS 6 Xposition Yposition Zposition Xrotation Yrotation Zrotation
							JOINT RightEye_end
							{
								OFFSET 0.006035 0.001186 0.123238
								CHANNELS 6 Xposition Yposition Zposition Xrotation Yrotation Zrotation
								End Site
								{
									OFFSET 0.006035 0.001186 0.123238
								}
							}
						}
					}
				}
				JOINT LeftShoulder
				{
					OFFSET 0.055153 0.014232 0.137620
					CHANNELS 6 Xposition Yposition Zposition Xrotation Yrotation Zrotation
					JOINT LeftArm
					{
						OFFSET 0.118080 -0.009128 -0.010491
						CHANNELS 6 Xposition Yposition Zposition Xrotation Yrotation Zrotation
						JOINT LeftForeArm
						{
							OFFSET 0.132791 0.007071 -0.252220
							CHANNELS 6 Xposition Yposition Zposition Xrotation Yrotation Zrotation
							JOINT LeftHand
							{
								OFFSET 0.122668 -0.103811 -0.194078
								CHANNELS 6 Xposition Yposition Zposition Xrotation Yrotation Zrotation
								JOINT LeftHandThumb1
								{
									OFFSET -0.003761 -0.038435 -0.016634
									CHANNELS 6 Xposition Yposition Zposition Xrotation Yrotation Zrotation
									JOINT LeftHandThumb2
									{
										OFFSET -0.009793 -0.035329 -0.019196
										CHANNELS 6 Xposition Yposition Zposition Xrotation Yrotation Zrotation
										JOINT LeftHandThumb3
										{
											OFFSET -0.004308 -0.015957 -0.025618
											CHANNELS 6 Xposition Yposition Zposition Xrotation Yrotation Zrotation
											JOINT LeftHandThumb4
											{
												OFFSET -0.003627 -0.013323 -0.032471
												CHANNELS 6 Xposition Yposition Zposition Xrotation Yrotation Zrotation
												JOINT LeftHandThumb4_end
												{
													OFFSET -0.004290 -0.012556 -0.032695
													CHANNELS 6 Xposition Yposition Zposition Xrotation Yrotation Zrotation
													End Site
													{
														OFFSET -0.004290 -0.012556 -0.032695
													}
												}
											}
										}
									}
								}
								JOINT LeftHandIndex1
								{
									OFFSET 0.035434 -0.069330 -0.068794
									CHANNELS 6 Xposition Yposition Zposition Xrotation Yrotation Zrotation
									JOINT LeftHandIndex2
									{
										OFFSET 0.009565 -0.020855 -0.038338
										CHANNELS 6 Xposition Yposition Zposition Xrotation Yrotation Zrotation
										JOINT LeftHandIndex3
										{
											OFFSET 0.000532 -0.013462 -0.024939
											CHANNELS 6 Xposition Yposition Zposition Xrotation Yrotation Zrotation
											JOINT LeftHandIndex4
											{
												OFFSET -0.004672 -0.013653 -0.030608
												CHANNELS 6 Xposition Yposition Zposition Xrotation Yrotation Zrotation
												JOINT LeftHandIndex4_end
												{
													OFFSET -0.007514 -0.012498 -0.030535
													CHANNELS 6 Xposition Yposition Zposition Xrotation Yrotation Zrotation
													End Site
													{
														OFFSET -0.007514 -0.012498 -0.030535
													}
												}
											}
										}
									}
								}
								JOINT LeftHandMiddle1
								{
									OFFSET 0.042090 -0.045838 -0.079142
									CHANNELS 6 Xposition Yposition Zposition Xrotation Yrotation Zrotation
									JOINT LeftHandMiddle2
									{
										OFFSET 0.015700 -0.017660 -0.039114
										CHANNELS 6 Xposition Yposition Zposition Xrotation Yrotation Zrotation
										JOINT LeftHandMiddle3
										{
											OFFSET 0.002898 -0.015410 -0.031746
											CHANNELS 6 Xposition Yposition Zposition Xrotation Yrotation Zrotation
											JOINT LeftHandMiddle4
											{
												OFFSET -0.010191 -0.009239 -0.031707
												CHANNELS 6 Xposition Yposition Zposition Xrotation Yrotation Zrotation
												JOINT LeftHandMiddle4_end
												{
													OFFSET -0.011693 -0.008658 -0.031351
													CHANNELS 6 Xposition Yposition Zposition Xrotation Yrotation Zrotation
													End Site
													{
														OFFSET -0.011693 -0.008658 -0.031351
													}
												}
											}
										}
									}
								}
								JOINT LeftHandRing1
								{
									OFFSET 0.043265 -0.020672 -0.084165
									CHANNELS 6 Xposition Yposition Zposition Xrotation Yrotation Zrotation
									JOINT LeftHandRing2
									{
										OFFSET 0.014052 -0.010092 -0.038161
										CHANNELS 6 Xposition Yposition Zposition Xrotation Yrotation Zrotation
										JOINT LeftHandRing3
										{
											OFFSET -0.001563 -0.010084 -0.034693
											CHANNELS 6 Xposition Yposition Zposition Xrotation Yrotation Zrotation
											JOINT LeftHandRing4
											{
												OFFSET -0.003598 -0.008015 -0.028489
												CHANNELS 6 Xposition Yposition Zposition Xrotation Yrotation Zrotation
												JOINT LeftHandRing4_end
												{
													OFFSET -0.004174 -0.009187 -0.028053
													CHANNELS 6 Xposition Yposition Zposition Xrotation Yrotation Zrotation
													End Site
													{
														OFFSET -0.004174 -0.009187 -0.028053
													}
												}
											}
										}
									}
								}
								JOINT LeftHandPinky1
								{
									OFFSET 0.041437 0.004533 -0.089282
									CHANNELS 6 Xposition Yposition Zposition Xrotation Yrotation Zrotation
									JOINT LeftHandPinky2
									{
										OFFSET 0.008505 -0.001159 -0.026812
										CHANNELS 6 Xposition Yposition Zposition Xrotation Yrotation Zrotation
										JOINT LeftHandPinky3
										{
											OFFSET 0.001754 -0.004274 -0.021894
											CHANNELS 6 Xposition Yposition Zposition Xrotation Yrotation Zrotation
											JOINT LeftHandPinky4
											{
												OFFSET -0.003841 -0.007591 -0.024912
												CHANNELS 6 Xposition Yposition Zposition Xrotation Yrotation Zrotation
												JOINT LeftHandPinky4_end
												{
													OFFSET -0.010732 -0.008026 -0.022658
													CHANNELS 6 Xposition Yposition Zposition Xrotation Yrotation Zrotation
													End Site
													{
														OFFSET -0.010732 -0.008026 -0.022658
													}
												}
											}
										}
									}
								}
							}
						}
					}
				}
				JOINT RightShoulder
				{
					OFFSET -0.038692 0.021965 0.142141
					CHANNELS 6 Xposition Yposition Zposition Xrotation Yrotation Zrotation
					JOINT RightArm
					{
						OFFSET -0.118440 0.010361 0.000906
						CHANNELS 6 Xposition Yposition Zposition Xrotation Yrotation Zrotation
						JOINT RightForeArm
						{
							OFFSET -0.153326 0.030646 -0.238433
							CHANNELS 6 Xposition Yposition Zposition Xrotation Yrotation Zrotation
							JOINT RightHand
							{
								OFFSET -0.155941 -0.080854 -0.180653
								CHANNELS 6 Xposition Yposition Zposition Xrotation Yrotation Zrotation
								JOINT RightHandThumb1
								{
									OFFSET -0.004171 -0.038401 -0.016615
									CHANNELS 6 Xposition Yposition Zposition Xrotation Yrotation Zrotation
									JOINT RightHandThumb2
									{
										OFFSET 0.002014 -0.036301 -0.019765
										CHANNELS 6 Xposition Yposition Zposition Xrotation Yrotation Zrotation
										JOINT RightHandThumb3
										{
											OFFSET -0.000823 -0.016244 -0.025786
											CHANNELS 6 Xposition Yposition Zposition Xrotation Yrotation Zrotation
											JOINT RightHandThumb4
											{
												OFFSET -0.001716 -0.013480 -0.032563
												CHANNELS 6 Xposition Yposition Zposition Xrotation Yrotation Zrotation
												JOINT RightHandThumb4_end
												{
													OFFSET -0.000960 -0.012830 -0.032855
													CHANNELS 6 Xposition Yposition Zposition Xrotation Yrotation Zrotation
													End Site
													{
														OFFSET -0.000960 -0.012830 -0.032855
													}
												}
											}
										}
									}
								}
								JOINT RightHandIndex1
								{
									OFFSET -0.052686 -0.062069 -0.064549
									CHANNELS 6 Xposition Yposition Zposition Xrotation Yrotation Zrotation
									JOINT RightHandIndex2
									{
										OFFSET -0.016459 -0.018710 -0.037084
										CHANNELS 6 Xposition Yposition Zposition Xrotation Yrotation Zrotation
										JOINT RightHandIndex3
										{
											OFFSET -0.005103 -0.012998 -0.024667
											CHANNELS 6 Xposition Yposition Zposition Xrotation Yrotation Zrotation
											JOINT RightHandIndex4
											{
												OFFSET -0.000566 -0.013992 -0.030805
												CHANNELS 6 Xposition Yposition Zposition Xrotation Yrotation Zrotation
												JOINT RightHandIndex4_end
												{
													OFFSET 0.002422 -0.013317 -0.031014
													CHANNELS 6 Xposition Yposition Zposition Xrotation Yrotation Zrotation
													End Site
													{
														OFFSET 0.002422 -0.013317 -0.031014
													}
												}
											}
										}
									}
								}
								JOINT RightHandMiddle1
								{
									OFFSET -0.056374 -0.037725 -0.074399
									CHANNELS 6 Xposition Yposition Zposition Xrotation Yrotation Zrotation
									JOINT RightHandMiddle2
									{
										OFFSET -0.022036 -0.014551 -0.037296
										CHANNELS 6 Xposition Yposition Zposition Xrotation Yrotation Zrotation
										JOINT RightHandMiddle3
										{
											OFFSET -0.008394 -0.014480 -0.031202
											CHANNELS 6 Xposition Yposition Zposition Xrotation Yrotation Zrotation
											JOINT RightHandMiddle4
											{
												OFFSET 0.005471 -0.010530 -0.032462
												CHANNELS 6 Xposition Yposition Zposition Xrotation Yrotation Zrotation
												JOINT RightHandMiddle4_end
												{
													OFFSET 0.007074 -0.010204 -0.032255
													CHANNELS 6 Xposition Yposition Zposition Xrotation Yrotation Zrotation
													End Site
													{
														OFFSET 0.007074 -0.010204 -0.032255
													}
												}
											}
										}
									}
								}
								JOINT RightHandRing1
								{
									OFFSET -0.053897 -0.012666 -0.079484
									CHANNELS 6 Xposition Yposition Zposition Xrotation Yrotation Zrotation
									JOINT RightHandRing2
									{
										OFFSET -0.019091 -0.007361 -0.036564
										CHANNELS 6 Xposition Yposition Zposition Xrotation Yrotation Zrotation
										JOINT RightHandRing3
										{
											OFFSET -0.003426 -0.009930 -0.034603
											CHANNELS 6 Xposition Yposition Zposition Xrotation Yrotation Zrotation
											JOINT RightHandRing4
											{
												OFFSET -0.000497 -0.008271 -0.028639
												CHANNELS 6 Xposition Yposition Zposition Xrotation Yrotation Zrotation
												JOINT RightHandRing4_end
												{
													OFFSET -0.000080 -0.009525 -0.028250
													CHANNELS 6 Xposition Yposition Zposition Xrotation Yrotation Zrotation
													End Site
													{
														OFFSET -0.000080 -0.009525 -0.028250
													}
												}
											}
										}
									}
								}
								JOINT RightHandPinky1
								{
									OFFSET -0.048475 0.011941 -0.084950
									CHANNELS 6 Xposition Yposition Zposition Xrotation Yrotation Zrotation
									JOINT RightHandPinky2
									{
										OFFSET -0.011101 0.000456 -0.025866
										CHANNELS 6 Xposition Yposition Zposition Xrotation Yrotation Zrotation
										JOINT RightHandPinky3
										{
											OFFSET -0.004511 -0.003758 -0.021592
											CHANNELS 6 Xposition Yposition Zposition Xrotation Yrotation Zrotation
											JOINT RightHandPinky4
											{
												OFFSET 0.000153 -0.007920 -0.025104
												CHANNELS 6 Xposition Yposition Zposition Xrotation Yrotation Zrotation
												JOINT RightHandPinky4_end
												{
													OFFSET 0.007063 -0.009492 -0.023515
													CHANNELS 6 Xposition Yposition Zposition Xrotation Yrotation Zrotation
													End Site
													{
														OFFSET 0.007063 -0.009492 -0.023515
													}
												}
											}
										}
									}
								}
							}
						}
					}
				}
			}
		}
	}
	JOINT LeftUpLeg
	{
		OFFSET 0.095426 -0.004653 0.000675
		CHANNELS 6 Xposition Yposition Zposition Xrotation Yrotation Zrotation
		JOINT LeftLeg
		{
			OFFSET 0.008144 -0.000897 -0.458101
			CHANNELS 6 Xposition Yposition Zposition Xrotation Yrotation Zrotation
			JOINT LeftFoot
			{
				OFFSET 0.008441 0.036166 -0.442303
				CHANNELS 6 Xposition Yposition Zposition Xrotation Yrotation Zrotation
				JOINT LeftToeBase
				{
					OFFSET -0.011601 -0.123185 -0.082738
					CHANNELS 6 Xposition Yposition Zposition Xrotation Yrotation Zrotation
					JOINT LeftToe_End
					{
						OFFSET -0.005232 -0.098831 -0.004587
						CHANNELS 6 Xposition Yposition Zposition Xrotation Yrotation Zrotation
						JOINT LeftToe_End_end
						{
							OFFSET -0.003548 -0.099004 -0.001231
							CHANNELS 6 Xposition Yposition Zposition Xrotation Yrotation Zrotation
							End Site
							{
								OFFSET -0.003548 -0.099004 -0.001231
							}
						}
					}
				}
			}
		}
	}
	JOINT RightUpLeg
	{
		OFFSET -0.094399 0.010988 0.009821
		CHANNELS 6 Xposition Yposition Zposition Xrotation Yrotation Zrotation
		JOINT RightLeg
		{
			OFFSET -0.051887 0.004049 -0.455208
			CHANNELS 6 Xposition Yposition Zposition Xrotation Yrotation Zrotation
			JOINT RightFoot
			{
				OFFSET -0.044618 0.040538 -0.439747
				CHANNELS 6 Xposition Yposition Zposition Xrotation Yrotation Zrotation
				JOINT RightToeBase
				{
					OFFSET -0.016624 -0.122772 -0.082496
					CHANNELS 6 Xposition Yposition Zposition Xrotation Yrotation Zrotation
					JOINT RightToe_End
					{
						OFFSET -0.011441 -0.098320 -0.004288
						CHANNELS 6 Xposition Yposition Zposition Xrotation Yrotation Zrotation
						JOINT RightToe_End_end
						{
							OFFSET -0.012800 -0.098242 -0.000785
							CHANNELS 6 Xposition Yposition Zposition Xrotation Yrotation Zrotation
							End Site
							{
								OFFSET -0.012800 -0.098242 -0.000785
							}
						}
					}
				}
			}
		}
	}
}
MOTION
Frames: 2
Frame Time: 0.041667
0.046588 -0.000002 1.010675 0.001139 -0.003069 -0.007061 0.004553 -0.002239 0.098342 1.124310 -1.693140 0.694976 0.007462 0.014882 0.129431 2.290448 -3.097622 1.409179 0.007545 0.021619 0.119635 2.290501 -3.097618 1.409210 0.008537 0.013102 0.154787 -10.288565 1.143039 0.789311 0.002391 -0.038956 0.116262 4.667320 4.260570 0.290715 0.007884 -0.036650 0.226318 -0.000015 0.000034 -0.000035 0.006035 0.001186 0.123238 -0.000000 0.000000 0.000001 0.028375 -0.080047 0.089514 -0.000003 0.000006 -0.000007 0.006035 0.001186 0.123237 -0.000000 0.000000 0.000000 -0.032685 -0.075016 0.092456 -0.000003 0.000006 -0.000008 0.006035 0.001186 0.123238 -0.000000 0.000000 -0.000000 0.055153 0.014232 0.137620 0.223992 -0.098906 -6.359491 0.118080 -0.009128 -0.010491 5.184824 18.567405 -26.290404 0.132790 0.007071 -0.252221 14.762974 5.985759 7.627952 0.122669 -0.103811 -0.194077 -20.545431 -10.367332 4.307319 -0.003761 -0.038434 -0.016635 20.426439 -1.024685 13.145148 -0.009793 -0.035329 -0.019196 -19.185426 0.049138 2.028766 -0.004308 -0.015957 -0.025618 -9.471177 2.500637 0.232752 -0.003627 -0.013323 -0.032471 -0.000046 0.000014 0.000050 -0.004290 -0.012556 -0.032695 -0.000001 0.000003 0.000001 0.035434 -0.069330 -0.068794 8.622190 5.450481 9.783834 0.009565 -0.020855 -0.038338 2.893943 -0.307494 0.039213 0.000533 -0.013462 -0.024939 -4.025819 -8.118035 3.935575 -0.004672 -0.013653 -0.030608 -0.000024 -0.000003 -0.000012 -0.007514 -0.012498 -0.030535 -0.000004 0.000003 -0.000004 0.042091 -0.045838 -0.079143 2.311289 5.391248 -0.103762 0.015700 -0.017660 -0.039114 2.779501 -4.322608 2.797790 0.002898 -0.015410 -0.031746 -8.166505 -20.608207 7.484132 -0.010191 -0.009239 -0.031707 0.000014 -0.000023 -0.000007 -0.011693 -0.008658 -0.031351 0.000002 -0.000008 -0.000002 0.043265 -0.020672 -0.084165 -3.579033 11.213601 -7.054246 0.014052 -0.010092 -0.038161 2.641825 -11.081549 3.842906 -0.001562 -0.010084 -0.034693 -0.443975 -4.277058 1.247840 -0.003598 -0.008015 -0.028489 -0.000031 0.000003 0.000040 -0.004174 -0.009187 -0.028053 0.000003 -0.000001 0.000000 0.041437 0.004533 -0.089282 -9.845647 18.057547 -13.706431 0.008505 -0.001159 -0.026812 5.679587 3.476837 0.664045 0.001754 -0.004274 -0.021894 6.285859 -12.377370 3.618302 -0.003841 -0.007591 -0.024912 0.000011 0.000060 0.000015 -0.010732 -0.008026 -0.022658 -0.000000 0.000002 -0.000001 -0.038692 0.021965 0.142141 1.048078 2.779203 3.370847 -0.118440 0.010361 0.000906 13.012588 -17.397590 31.300694 -0.153326 0.030646 -0.238433 11.264250 -8.125497 -8.376112 -0.155940 -0.080854 -0.180652 -21.027029 22.407627 -16.200000 -0.004172 -0.038401 -0.016616 19.116140 -4.407407 -18.272277 0.002014 -0.036302 -0.019765 -14.738206 1.600704 0.030467 -0.000823 -0.016244 -0.025786 -9.700153 -1.005056 0.814822 -0.001716 -0.013480 -0.032563 0.000019 0.000039 0.000027 -0.000960 -0.012830 -0.032855 -0.000003 -0.000001 -0.000002 -0.052686 -0.062069 -0.064549 3.200977 -5.581868 -8.614023 -0.016459 -0.018710 -0.037083 1.975801 5.103448 -3.314009 -0.005103 -0.012998 -0.024667 -3.050906 8.701425 -3.621459 -0.000566 -0.013992 -0.030805 -0.000028 -0.000033 0.000023 0.002422 -0.013317 -0.031014 -0.000004 -0.000001 -0.000001 -0.056374 -0.037725 -0.074399 1.367081 -8.238346 1.947415 -0.022036 -0.014551 -0.037296 3.003934 3.762307 -3.033774 -0.008394 -0.014480 -0.031202 -5.542765 21.740912 -7.117011 0.005471 -0.010530 -0.032462 -0.000016 0.000013 -0.000044 0.007074 -0.010204 -0.032255 -0.000002 -0.000001 0.000002 -0.053897 -0.012666 -0.079484 -8.141094 -12.045034 7.102000 -0.019092 -0.007361 -0.036564 3.617450 11.573446 -4.570425 -0.003426 -0.009931 -0.034603 0.142684 4.303639 -1.250890 -0.000497 -0.008271 -0.028639 -0.000024 0.000013 -0.000025 -0.000080 -0.009525 -0.028250 -0.000002 -0.000001 0.000001 -0.048475 0.011941 -0.084950 -17.665692 -10.994504 12.104488 -0.011101 0.000456 -0.025867 3.982368 -0.424511 -2.158879 -0.004511 -0.003758 -0.021592 7.989530 11.174454 -4.367506 0.000153 -0.007920 -0.025104 -0.000020 0.000038 -0.000037 0.007063 -0.009492 -0.023515 0.000000 0.000002 0.000005 0.095426 -0.004653 0.000675 -16.046119 -3.878168 2.528970 0.008145 -0.000897 -0.458101 14.255561 -0.594533 0.437990 0.008443 0.036166 -0.442303 4.948793 0.018879 18.119940 -0.011603 -0.123185 -0.082737 -0.427757 1.545268 3.234261 -0.005233 -0.098830 -0.004587 -0.000041 0.000147 -0.000067 -0.003548 -0.099004 -0.001231 -0.000000 0.000000 0.000000 -0.094399 0.010988 0.009821 -5.497844 -9.477751 -7.011151 -0.051889 0.004050 -0.455209 7.947762 -0.987315 -0.803596 -0.044621 0.040538 -0.439746 -3.268503 7.965053 -12.181942 -0.016619 -0.122772 -0.082496 -2.659404 0.817751 1.097890 -0.011437 -0.098320 -0.004288 -0.000037 -0.000291 0.000088 -0.012800 -0.098242 -0.000785 0.000000 -0.000000 0.000005 
0.046633 0.000035 1.010673 0.005558 -0.013246 -0.038957 0.004553 -0.002239 0.098342 1.123734 -1.691893 0.697467 0.007462 0.014882 0.129431 2.289303 -3.095501 1.414123 0.007545 0.021619 0.119635 2.289362 -3.095497 1.414152 0.008537 0.013102 0.154787 -10.287698 1.148292 0.794694 0.002391 -0.038956 0.116262 4.671246 4.265567 0.295480 0.007884 -0.036650 0.226318 -0.000015 0.000034 -0.000035 0.006035 0.001186 0.123238 -0.000000 0.000000 0.000001 0.028375 -0.080047 0.089514 -0.000003 0.000006 -0.000008 0.006035 0.001186 0.123237 0.000000 0.000000 0.000000 -0.032685 -0.075016 0.092456 -0.000003 0.000007 -0.000008 0.006035 0.001186 0.123238 0.000000 0.000000 0.000000 0.055153 0.014232 0.137620 0.225358 -0.084669 -6.375006 0.118080 -0.009128 -0.010491 5.218100 18.562646 -26.289379 0.132790 0.007071 -0.252221 14.768483 5.984887 7.627279 0.122668 -0.103810 -0.194077 -20.560710 -10.400854 4.357836 -0.003761 -0.038434 -0.016635 20.426446 -1.024684 13.145146 -0.009793 -0.035329 -0.019196 -19.185421 0.049140 2.028765 -0.004308 -0.015957 -0.025618 -9.471175 2.500636 0.232755 -0.003627 -0.013323 -0.032471 -0.000044 0.000014 0.000050 -0.004290 -0.012556 -0.032695 0.000000 0.000002 0.000003 0.035434 -0.069330 -0.068794 8.622200 5.450489 9.783835 0.009565 -0.020855 -0.038337 2.893947 -0.307507 0.039206 0.000533 -0.013462 -0.024939 -4.025819 -8.118038 3.935576 -0.004672 -0.013653 -0.030608 -0.000024 -0.000004 -0.000009 -0.007514 -0.012498 -0.030535 -0.000001 0.000002 -0.000000 0.042090 -0.045838 -0.079142 2.311278 5.391254 -0.103760 0.015700 -0.017660 -0.039114 2.779493 -4.322603 2.797775 0.002898 -0.015410 -0.031746 -8.166508 -20.608211 7.484133 -0.010191 -0.009239 -0.031707 0.000018 -0.000023 -0.000004 -0.011694 -0.008658 -0.031351 0.000004 -0.000009 -0.000000 0.043265 -0.020672 -0.084165 -3.579025 11.213587 -7.054247 0.014052 -0.010092 -0.038161 2.641817 -11.081524 3.842897 -0.001562 -0.010084 -0.034693 -0.443971 -4.277059 1.247843 -0.003598 -0.008015 -0.028489 -0.000029 0.000004 0.000044 -0.004174 -0.009187 -0.028053 0.000006 -0.000003 0.000001 0.041437 0.004533 -0.089282 -9.845646 18.057548 -13.706436 0.008505 -0.001159 -0.026812 5.679611 3.476821 0.664055 0.001754 -0.004274 -0.021894 6.285858 -12.377373 3.618300 -0.003841 -0.007591 -0.024912 0.000012 0.000065 0.000012 -0.010732 -0.008026 -0.022658 -0.000000 0.000005 -0.000002 -0.038692 0.021965 0.142141 1.048149 2.784745 3.375281 -0.118440 0.010361 0.000906 13.008280 -17.373530 31.284988 -0.153326 0.030646 -0.238433 11.245719 -8.121337 -8.364313 -0.155941 -0.080854 -0.180652 -21.007384 22.397527 -16.215144 -0.004171 -0.038401 -0.016616 19.116139 -4.407405 -18.272277 0.002014 -0.036302 -0.019765 -14.738206 1.600704 0.030466 -0.000823 -0.016244 -0.025786 -9.700152 -1.005055 0.814821 -0.001716 -0.013480 -0.032563 0.000021 0.000039 0.000029 -0.000960 -0.012830 -0.032855 -0.000001 -0.000000 -0.000002 -0.052686 -0.062069 -0.064549 3.200982 -5.581850 -8.614002 -0.016459 -0.018710 -0.037083 1.975803 5.103421 -3.313998 -0.005103 -0.012998 -0.024667 -3.050908 8.701425 -3.621459 -0.000566 -0.013992 -0.030805 -0.000031 -0.000033 0.000024 0.002422 -0.013317 -0.031014 -0.000002 -0.000001 -0.000001 -0.056374 -0.037725 -0.074399 1.367075 -8.238328 1.947424 -0.022036 -0.014551 -0.037296 3.003949 3.762309 -3.033783 -0.008394 -0.014480 -0.031202 -5.542766 21.740916 -7.117012 0.005470 -0.010530 -0.032462 -0.000016 0.000014 -0.000045 0.007074 -0.010204 -0.032255 0.000001 -0.000001 0.000001 -0.053897 -0.012666 -0.079484 -8.141089 -12.045044 7.102013 -0.019092 -0.007361 -0.036564 3.617444 11.573445 -4.570430 -0.003426 -0.009931 -0.034604 0.142690 4.303639 -1.250888 -0.000497 -0.008271 -0.028639 -0.000026 0.000013 -0.000024 -0.000080 -0.009525 -0.028251 -0.000000 0.000000 -0.000001 -0.048475 0.011941 -0.084950 -17.665695 -10.994523 12.104505 -0.011101 0.000456 -0.025867 3.982370 -0.424490 -2.158889 -0.004511 -0.003758 -0.021592 7.989526 11.174454 -4.367506 0.000153 -0.007920 -0.025104 -0.000020 0.000038 -0.000036 0.007063 -0.009492 -0.023515 -0.000003 0.000001 0.000002 0.095426 -0.004653 0.000675 -16.044109 -3.870042 2.536791 0.008145 -0.000897 -0.458101 14.252884 -0.594463 0.437841 0.008443 0.036166 -0.442303 4.939869 0.022254 18.153880 -0.011603 -0.123185 -0.082737 -0.417405 1.540700 3.190779 -0.005233 -0.098831 -0.004587 -0.000041 0.000147 -0.000068 -0.003548 -0.099004 -0.001231 0.000000 0.000000 0.000000 -0.094399 0.010988 0.009821 -5.519063 -9.460203 -7.008807 -0.051889 0.004050 -0.455209 7.976026 -0.991825 -0.806959 -0.044621 0.040538 -0.439746 -3.277440 7.963717 -12.152191 -0.016619 -0.122772 -0.082496 -2.657112 0.819817 1.099484 -0.011437 -0.098320 -0.004288 -0.000037 -0.000291 0.000087 -0.012800 -0.098242 -0.000785 0.000000 -0.000000 0.000002 
